# xmcd
#
# Track frame offsets:
#	150
#	15372
#	32147
#	41292
#	58707
#	68175
#	84202
#	100850
#	122915
#	136500
#
# Disc length: 2126 seconds
#
# Revision: 0
# Processed by: cddbd v1.5.1PL2 Copyright (c) Steve Scherf et al.
# Submitted via: dBpowerAMP V4.0
#
DISCID=72084c0a
DTITLE=Miran Dadali - Miran Dadali
DYEAR=1991
DGENRE=Pop
TTITLE0=Riding
TTITLE1=Amerika
TTITLE2=One
TTITLE3=Breathe
TTITLE4=Bird
TTITLE5=Gerty
TTITLE6=L.D.
TTITLE7=Angels
TTITLE8=Wrong
TTITLE9=St.G.
EXTD=
EXTT0=
EXTT1=
EXTT2=
EXTT3=
EXTT4=
EXTT5=
EXTT6=
EXTT7=
EXTT8=
EXTT9=
PLAYORDER=
